<mxfile host="app.diagrams.net" agent="Mozilla/5.0 (X11; Linux x86_64) AppleWebKit/537.36 (KHTML, like Gecko) Chrome/138.0.0.0 Safari/537.36" version="28.0.7">
  <diagram name="Page-1" id="HKhyJGKJhishLroQ09m7">
    <mxGraphModel dx="872" dy="469" grid="1" gridSize="10" guides="1" tooltips="1" connect="1" arrows="1" fold="1" page="1" pageScale="1" pageWidth="850" pageHeight="1100" math="0" shadow="0">
      <root>
        <mxCell id="0" />
        <mxCell id="1" parent="0" />
        <mxCell id="5IOgpOtYKzdcHkM1CQEa-21" style="edgeStyle=orthogonalEdgeStyle;rounded=0;orthogonalLoop=1;jettySize=auto;html=1;exitX=1;exitY=0.5;exitDx=0;exitDy=0;entryX=0;entryY=0.5;entryDx=0;entryDy=0;" parent="1" source="5IOgpOtYKzdcHkM1CQEa-2" target="5IOgpOtYKzdcHkM1CQEa-3" edge="1">
          <mxGeometry relative="1" as="geometry">
            <Array as="points">
              <mxPoint x="220" y="170" />
              <mxPoint x="220" y="215" />
            </Array>
          </mxGeometry>
        </mxCell>
        <mxCell id="5IOgpOtYKzdcHkM1CQEa-2" value="obtain&amp;nbsp;meator/AdbWinApi" style="rounded=0;whiteSpace=wrap;html=1;dashed=1;dashPattern=8 8;" parent="1" vertex="1">
          <mxGeometry x="20" y="150" width="170" height="40" as="geometry" />
        </mxCell>
        <mxCell id="5IOgpOtYKzdcHkM1CQEa-33" style="edgeStyle=orthogonalEdgeStyle;rounded=0;orthogonalLoop=1;jettySize=auto;html=1;exitX=1;exitY=0.5;exitDx=0;exitDy=0;entryX=0;entryY=0.5;entryDx=0;entryDy=0;" parent="1" source="5IOgpOtYKzdcHkM1CQEa-3" target="5IOgpOtYKzdcHkM1CQEa-23" edge="1">
          <mxGeometry relative="1" as="geometry">
            <Array as="points">
              <mxPoint x="540" y="215" />
              <mxPoint x="540" y="260" />
            </Array>
          </mxGeometry>
        </mxCell>
        <mxCell id="5IOgpOtYKzdcHkM1CQEa-3" value="run&amp;nbsp;&lt;code&gt;initialize_build_template.py&lt;/code&gt;&lt;div&gt;&lt;hr&gt;&lt;/div&gt;" style="rounded=1;whiteSpace=wrap;html=1;verticalAlign=top;" parent="1" vertex="1">
          <mxGeometry x="235" y="50" width="290" height="330" as="geometry" />
        </mxCell>
        <mxCell id="5IOgpOtYKzdcHkM1CQEa-22" style="edgeStyle=orthogonalEdgeStyle;rounded=0;orthogonalLoop=1;jettySize=auto;html=1;exitX=0.5;exitY=1;exitDx=0;exitDy=0;entryX=0.5;entryY=0;entryDx=0;entryDy=0;" parent="1" source="5IOgpOtYKzdcHkM1CQEa-6" target="5IOgpOtYKzdcHkM1CQEa-13" edge="1">
          <mxGeometry relative="1" as="geometry" />
        </mxCell>
        <mxCell id="5IOgpOtYKzdcHkM1CQEa-6" value="copy&amp;nbsp;&lt;code&gt;build_template\&lt;/code&gt;&lt;div&gt;to target directory&lt;/div&gt;" style="rounded=1;whiteSpace=wrap;html=1;dashed=1;dashPattern=8 8;" parent="1" vertex="1">
          <mxGeometry x="300" y="240" width="160" height="40" as="geometry" />
        </mxCell>
        <mxCell id="5IOgpOtYKzdcHkM1CQEa-11" style="edgeStyle=orthogonalEdgeStyle;rounded=0;orthogonalLoop=1;jettySize=auto;html=1;exitX=0.5;exitY=1;exitDx=0;exitDy=0;entryX=0.5;entryY=0;entryDx=0;entryDy=0;" parent="1" source="5IOgpOtYKzdcHkM1CQEa-9" target="5IOgpOtYKzdcHkM1CQEa-10" edge="1">
          <mxGeometry relative="1" as="geometry" />
        </mxCell>
        <mxCell id="5IOgpOtYKzdcHkM1CQEa-12" value="No" style="edgeLabel;html=1;align=center;verticalAlign=middle;resizable=0;points=[];" parent="5IOgpOtYKzdcHkM1CQEa-11" vertex="1" connectable="0">
          <mxGeometry x="0.0667" relative="1" as="geometry">
            <mxPoint x="10" y="-3" as="offset" />
          </mxGeometry>
        </mxCell>
        <mxCell id="5IOgpOtYKzdcHkM1CQEa-19" style="edgeStyle=orthogonalEdgeStyle;rounded=0;orthogonalLoop=1;jettySize=auto;html=1;exitX=0;exitY=0.5;exitDx=0;exitDy=0;entryX=0;entryY=0.5;entryDx=0;entryDy=0;" parent="1" source="5IOgpOtYKzdcHkM1CQEa-9" target="5IOgpOtYKzdcHkM1CQEa-6" edge="1">
          <mxGeometry relative="1" as="geometry" />
        </mxCell>
        <mxCell id="5IOgpOtYKzdcHkM1CQEa-20" value="Yes" style="edgeLabel;html=1;align=center;verticalAlign=middle;resizable=0;points=[];" parent="5IOgpOtYKzdcHkM1CQEa-19" vertex="1" connectable="0">
          <mxGeometry x="-0.3867" y="2" relative="1" as="geometry">
            <mxPoint x="13" y="21" as="offset" />
          </mxGeometry>
        </mxCell>
        <mxCell id="5IOgpOtYKzdcHkM1CQEa-9" value="&lt;div&gt;&lt;br&gt;&lt;/div&gt;msys2/adbwinapi&amp;nbsp;&lt;span style=&quot;background-color: transparent; color: light-dark(rgb(0, 0, 0), rgb(255, 255, 255));&quot;&gt;release&lt;/span&gt;&lt;div&gt;&lt;span style=&quot;background-color: transparent; color: light-dark(rgb(0, 0, 0), rgb(255, 255, 255));&quot;&gt;.tar.gz is available&lt;/span&gt;&lt;/div&gt;&lt;div&gt;&lt;span style=&quot;background-color: transparent; color: light-dark(rgb(0, 0, 0), rgb(255, 255, 255));&quot;&gt;in &lt;code&gt;cache\&lt;/code&gt;&lt;/span&gt;&lt;/div&gt;" style="rhombus;whiteSpace=wrap;html=1;verticalAlign=middle;dashed=1;dashPattern=8 8;" parent="1" vertex="1">
          <mxGeometry x="265" y="90" width="230" height="80" as="geometry" />
        </mxCell>
        <mxCell id="5IOgpOtYKzdcHkM1CQEa-18" style="edgeStyle=orthogonalEdgeStyle;rounded=0;orthogonalLoop=1;jettySize=auto;html=1;exitX=0.5;exitY=1;exitDx=0;exitDy=0;entryX=0.5;entryY=0;entryDx=0;entryDy=0;" parent="1" source="5IOgpOtYKzdcHkM1CQEa-10" target="5IOgpOtYKzdcHkM1CQEa-6" edge="1">
          <mxGeometry relative="1" as="geometry" />
        </mxCell>
        <mxCell id="5IOgpOtYKzdcHkM1CQEa-10" value="fetch it to &lt;code&gt;cache\&lt;/code&gt;" style="rounded=1;whiteSpace=wrap;html=1;dashed=1;dashPattern=12 12;" parent="1" vertex="1">
          <mxGeometry x="325" y="192" width="110" height="25" as="geometry" />
        </mxCell>
        <mxCell id="5IOgpOtYKzdcHkM1CQEa-13" value="link/copy release archive from &lt;code&gt;cache\&lt;/code&gt; to&lt;div&gt;&lt;code&gt;&amp;lt;target&amp;gt;\subprojects\packagefiles&lt;/code&gt;&lt;/div&gt;&lt;div&gt;as source for internal wrap&lt;/div&gt;" style="rounded=1;whiteSpace=wrap;html=1;dashed=1;dashPattern=8 8;" parent="1" vertex="1">
          <mxGeometry x="251.25" y="300" width="257.5" height="60" as="geometry" />
        </mxCell>
        <mxCell id="5IOgpOtYKzdcHkM1CQEa-35" style="edgeStyle=orthogonalEdgeStyle;rounded=0;orthogonalLoop=1;jettySize=auto;html=1;exitX=0.5;exitY=1;exitDx=0;exitDy=0;entryX=0.5;entryY=0;entryDx=0;entryDy=0;" parent="1" source="5IOgpOtYKzdcHkM1CQEa-23" target="5IOgpOtYKzdcHkM1CQEa-34" edge="1">
          <mxGeometry relative="1" as="geometry" />
        </mxCell>
        <mxCell id="5IOgpOtYKzdcHkM1CQEa-23" value="standard Meson build process&lt;div&gt;&lt;hr&gt;&lt;/div&gt;" style="rounded=1;whiteSpace=wrap;html=1;verticalAlign=top;" parent="1" vertex="1">
          <mxGeometry x="552.5" y="140" width="247.5" height="240" as="geometry" />
        </mxCell>
        <mxCell id="5IOgpOtYKzdcHkM1CQEa-28" style="edgeStyle=orthogonalEdgeStyle;rounded=0;orthogonalLoop=1;jettySize=auto;html=1;exitX=0.5;exitY=1;exitDx=0;exitDy=0;entryX=0.5;entryY=0;entryDx=0;entryDy=0;" parent="1" source="5IOgpOtYKzdcHkM1CQEa-24" target="5IOgpOtYKzdcHkM1CQEa-25" edge="1">
          <mxGeometry relative="1" as="geometry" />
        </mxCell>
        <mxCell id="5IOgpOtYKzdcHkM1CQEa-24" value="configure builddir with&amp;nbsp;release_install_native.ini&lt;div&gt;and with cross file in&amp;nbsp;crossfiles\&lt;/div&gt;&lt;div&gt;when cross compiling&lt;/div&gt;" style="rounded=1;whiteSpace=wrap;html=1;dashed=1;dashPattern=8 8;" parent="1" vertex="1">
          <mxGeometry x="567.5" y="180" width="222.5" height="70" as="geometry" />
        </mxCell>
        <mxCell id="5IOgpOtYKzdcHkM1CQEa-30" style="edgeStyle=orthogonalEdgeStyle;rounded=0;orthogonalLoop=1;jettySize=auto;html=1;exitX=0.5;exitY=1;exitDx=0;exitDy=0;entryX=0.5;entryY=0;entryDx=0;entryDy=0;" parent="1" source="5IOgpOtYKzdcHkM1CQEa-25" target="5IOgpOtYKzdcHkM1CQEa-29" edge="1">
          <mxGeometry relative="1" as="geometry" />
        </mxCell>
        <mxCell id="5IOgpOtYKzdcHkM1CQEa-25" value="build" style="rounded=1;whiteSpace=wrap;html=1;dashed=1;dashPattern=8 8;" parent="1" vertex="1">
          <mxGeometry x="653.75" y="277" width="50" height="30" as="geometry" />
        </mxCell>
        <mxCell id="5IOgpOtYKzdcHkM1CQEa-29" value="install into&amp;nbsp;AdbWinApi-&amp;lt;version&amp;gt;\&amp;lt;arch&amp;gt;" style="rounded=1;whiteSpace=wrap;html=1;dashed=1;dashPattern=8 8;" parent="1" vertex="1">
          <mxGeometry x="566.25" y="330" width="225" height="30" as="geometry" />
        </mxCell>
        <mxCell id="5IOgpOtYKzdcHkM1CQEa-31" value="The &lt;code&gt;release_install_native.ini&lt;/code&gt; file tells &lt;code&gt;meson install&lt;/code&gt; to put everything into the top folder. &lt;code&gt;--destdir&lt;/code&gt; is set in &lt;code&gt;meson install&lt;/code&gt; to manually control the placement of library files." style="shape=note2;boundedLbl=1;whiteSpace=wrap;html=1;size=25;verticalAlign=top;align=center;fillColor=#fff2cc;strokeColor=#d6b656;" parent="1" vertex="1">
          <mxGeometry x="561.25" y="10" width="235" height="120" as="geometry" />
        </mxCell>
        <mxCell id="5IOgpOtYKzdcHkM1CQEa-37" style="edgeStyle=orthogonalEdgeStyle;rounded=0;orthogonalLoop=1;jettySize=auto;html=1;exitX=0;exitY=0.5;exitDx=0;exitDy=0;entryX=1;entryY=0.5;entryDx=0;entryDy=0;" parent="1" source="5IOgpOtYKzdcHkM1CQEa-34" target="5IOgpOtYKzdcHkM1CQEa-36" edge="1">
          <mxGeometry relative="1" as="geometry" />
        </mxCell>
        <mxCell id="5IOgpOtYKzdcHkM1CQEa-34" value="generate the Wrap meson.build file using&amp;nbsp;&lt;code&gt;initialize_wrap_build_template.py&lt;/code&gt;&lt;div&gt;and put it into&amp;nbsp;&lt;span style=&quot;background-color: transparent; color: light-dark(rgb(0, 0, 0), rgb(255, 255, 255));&quot;&gt;AdbWinApi-&amp;lt;version&amp;gt;\&lt;/span&gt;&lt;/div&gt;" style="rounded=1;whiteSpace=wrap;html=1;" parent="1" vertex="1">
          <mxGeometry x="534.38" y="410" width="288.75" height="60" as="geometry" />
        </mxCell>
        <mxCell id="5IOgpOtYKzdcHkM1CQEa-39" style="edgeStyle=orthogonalEdgeStyle;rounded=0;orthogonalLoop=1;jettySize=auto;html=1;exitX=0;exitY=0.5;exitDx=0;exitDy=0;entryX=1;entryY=0.5;entryDx=0;entryDy=0;" parent="1" source="5IOgpOtYKzdcHkM1CQEa-36" target="5IOgpOtYKzdcHkM1CQEa-38" edge="1">
          <mxGeometry relative="1" as="geometry" />
        </mxCell>
        <mxCell id="5IOgpOtYKzdcHkM1CQEa-36" value="pack it up into a .tar.gz, creating the contents of the Wrap" style="rounded=1;whiteSpace=wrap;html=1;" parent="1" vertex="1">
          <mxGeometry x="295" y="415" width="200" height="50" as="geometry" />
        </mxCell>
        <mxCell id="5IOgpOtYKzdcHkM1CQEa-38" value="generate the wrap file using&amp;nbsp;&lt;code&gt;generate_wrap_file.py&lt;/code&gt;" style="rounded=1;whiteSpace=wrap;html=1;" parent="1" vertex="1">
          <mxGeometry x="11.25" y="415" width="240" height="50" as="geometry" />
        </mxCell>
        <mxCell id="5IOgpOtYKzdcHkM1CQEa-44" value="msys2/adbwinapi is built as internal Wrap. The Wrap is set up by &lt;code&gt;initialize_build_template.py&lt;/code&gt;. This is done to make patching in a meson.build file into msys2/adbwinapi easy (the wrap file has a patch directory) and to apply a few patches which fix compilation failure (using Wrap diff files)." style="shape=note2;boundedLbl=1;whiteSpace=wrap;html=1;size=25;verticalAlign=top;align=center;fillColor=#fff2cc;strokeColor=#d6b656;" parent="1" vertex="1">
          <mxGeometry x="11.25" y="200" width="210" height="170" as="geometry" />
        </mxCell>
        <mxCell id="aQf1hthGNhwgmISeAP8V-1" value="The &quot;real&quot; Meson build system for AdbWinApi and AdbWinUsbApi is located in &lt;code&gt;build_template\subprojects\packagefiles\patch\meson.build&lt;/code&gt;&lt;div&gt;The Wrap build system is located in&lt;/div&gt;&lt;div&gt;&lt;code&gt;wrap_build_template\meson.build&lt;/code&gt;&lt;br&gt;&lt;/div&gt;" style="shape=note2;boundedLbl=1;whiteSpace=wrap;html=1;size=25;verticalAlign=top;align=center;fillColor=#fff2cc;strokeColor=#d6b656;" parent="1" vertex="1">
          <mxGeometry x="208" y="480" width="435" height="100" as="geometry" />
        </mxCell>
      </root>
    </mxGraphModel>
  </diagram>
</mxfile>
